{
	"asset":{
		"generator":"Khronos glTF Blender I/O v4.3.47",
		"version":"2.0"
	},
	"scene":0,
	"scenes":[
		{
			"name":"Scene",
			"nodes":[
				0
			]
		}
	],
	"nodes":[
		{
			"mesh":0,
			"name":"mallapandero",
			"rotation":[
				-1,
				0,
				0,
				4.371138828673793e-08
			]
		}
	],
	"materials":[
		{
			"doubleSided":true,
			"name":"Material.004",
			"pbrMetallicRoughness":{
				"metallicFactor":0,
				"roughnessFactor":0.2706422209739685
			}
		},
		{
			"doubleSided":true,
			"name":"Material.005",
			"pbrMetallicRoughness":{
				"baseColorFactor":[
					0,
					0,
					0,
					1
				],
				"metallicFactor":0,
				"roughnessFactor":0.1513761579990387
			}
		},
		{
			"doubleSided":true,
			"name":"Material.006",
			"pbrMetallicRoughness":{
				"baseColorFactor":[
					0.013219289481639862,
					0.20455804467201233,
					0.8003076910972595,
					1
				],
				"metallicFactor":0,
				"roughnessFactor":0.20642203092575073
			}
		},
		{
			"doubleSided":true,
			"name":"Material.002",
			"pbrMetallicRoughness":{
				"baseColorFactor":[
					0,
					0,
					0,
					1
				],
				"metallicFactor":0,
				"roughnessFactor":0.5091742873191833
			}
		},
		{
			"doubleSided":true,
			"name":"Material.007"
		},
		{
			"doubleSided":true,
			"name":"Material.003",
			"pbrMetallicRoughness":{
				"baseColorFactor":[
					0.8003553152084351,
					0.44619929790496826,
					0.006627993192523718,
					1
				],
				"metallicFactor":0.5229358077049255,
				"roughnessFactor":0.5
			}
		}
	],
	"meshes":[
		{
			"name":"Circle.040",
			"primitives":[
				{
					"attributes":{
						"POSITION":0,
						"NORMAL":1,
						"TEXCOORD_0":2
					},
					"indices":3,
					"material":0
				},
				{
					"attributes":{
						"POSITION":4,
						"NORMAL":5,
						"TEXCOORD_0":6
					},
					"indices":7,
					"material":1
				},
				{
					"attributes":{
						"POSITION":8,
						"NORMAL":9,
						"TEXCOORD_0":10
					},
					"indices":11,
					"material":2
				},
				{
					"attributes":{
						"POSITION":12,
						"NORMAL":13,
						"TEXCOORD_0":14
					},
					"indices":15,
					"material":3
				},
				{
					"attributes":{
						"POSITION":16,
						"NORMAL":17,
						"TEXCOORD_0":18
					},
					"indices":19,
					"material":4
				},
				{
					"attributes":{
						"POSITION":20,
						"NORMAL":21,
						"TEXCOORD_0":22
					},
					"indices":23,
					"material":5
				}
			]
		}
	],
	"accessors":[
		{
			"bufferView":0,
			"componentType":5126,
			"count":35513,
			"max":[
				0.9935951232910156,
				-0.11866705119609833,
				0.9935951232910156
			],
			"min":[
				-0.9935950040817261,
				-0.5421062111854553,
				-0.9935950040817261
			],
			"type":"VEC3"
		},
		{
			"bufferView":1,
			"componentType":5126,
			"count":35513,
			"type":"VEC3"
		},
		{
			"bufferView":2,
			"componentType":5126,
			"count":35513,
			"type":"VEC2"
		},
		{
			"bufferView":3,
			"componentType":5123,
			"count":88686,
			"type":"SCALAR"
		},
		{
			"bufferView":4,
			"componentType":5126,
			"count":5230,
			"max":[
				0.9935951232910156,
				0.01902330294251442,
				0.9935951232910156
			],
			"min":[
				-0.9935951232910156,
				-0.12227022647857666,
				-0.9935951232910156
			],
			"type":"VEC3"
		},
		{
			"bufferView":5,
			"componentType":5126,
			"count":5230,
			"type":"VEC3"
		},
		{
			"bufferView":6,
			"componentType":5126,
			"count":5230,
			"type":"VEC2"
		},
		{
			"bufferView":7,
			"componentType":5123,
			"count":26442,
			"type":"SCALAR"
		},
		{
			"bufferView":8,
			"componentType":5126,
			"count":6402,
			"max":[
				0.9935951232910156,
				-0.5410519242286682,
				0.9935951232910156
			],
			"min":[
				-0.9935951232910156,
				-0.5810531973838806,
				-0.9935951232910156
			],
			"type":"VEC3"
		},
		{
			"bufferView":9,
			"componentType":5126,
			"count":6402,
			"type":"VEC3"
		},
		{
			"bufferView":10,
			"componentType":5126,
			"count":6402,
			"type":"VEC2"
		},
		{
			"bufferView":11,
			"componentType":5123,
			"count":32256,
			"type":"SCALAR"
		},
		{
			"bufferView":12,
			"componentType":5126,
			"count":15283,
			"max":[
				1.006768822669983,
				-0.13923248648643494,
				1.0114564895629883
			],
			"min":[
				-1.0067687034606934,
				-0.5429760217666626,
				-1.0067687034606934
			],
			"type":"VEC3"
		},
		{
			"bufferView":13,
			"componentType":5126,
			"count":15283,
			"type":"VEC3"
		},
		{
			"bufferView":14,
			"componentType":5126,
			"count":15283,
			"type":"VEC2"
		},
		{
			"bufferView":15,
			"componentType":5123,
			"count":49752,
			"type":"SCALAR"
		},
		{
			"bufferView":16,
			"componentType":5126,
			"count":4878882,
			"max":[
				1.0745666027069092,
				-0.09391501545906067,
				1.0748298168182373
			],
			"min":[
				-1.1555811166763306,
				-0.474057137966156,
				-1.1401182413101196
			],
			"type":"VEC3"
		},
		{
			"bufferView":17,
			"componentType":5126,
			"count":4878882,
			"type":"VEC3"
		},
		{
			"bufferView":18,
			"componentType":5126,
			"count":4878882,
			"type":"VEC2"
		},
		{
			"bufferView":19,
			"componentType":5125,
			"count":7513242,
			"type":"SCALAR"
		},
		{
			"bufferView":20,
			"componentType":5126,
			"count":12288,
			"max":[
				-0.11527670919895172,
				-0.1473773866891861,
				1.012215495109558
			],
			"min":[
				-0.43398380279541016,
				-0.4693143963813782,
				0.8390107750892639
			],
			"type":"VEC3"
		},
		{
			"bufferView":21,
			"componentType":5126,
			"count":12288,
			"type":"VEC3"
		},
		{
			"bufferView":22,
			"componentType":5126,
			"count":12288,
			"type":"VEC2"
		},
		{
			"bufferView":23,
			"componentType":5123,
			"count":73728,
			"type":"SCALAR"
		}
	],
	"bufferViews":[
		{
			"buffer":0,
			"byteLength":426156,
			"byteOffset":0,
			"target":34962
		},
		{
			"buffer":0,
			"byteLength":426156,
			"byteOffset":426156,
			"target":34962
		},
		{
			"buffer":0,
			"byteLength":284104,
			"byteOffset":852312,
			"target":34962
		},
		{
			"buffer":0,
			"byteLength":177372,
			"byteOffset":1136416,
			"target":34963
		},
		{
			"buffer":0,
			"byteLength":62760,
			"byteOffset":1313788,
			"target":34962
		},
		{
			"buffer":0,
			"byteLength":62760,
			"byteOffset":1376548,
			"target":34962
		},
		{
			"buffer":0,
			"byteLength":41840,
			"byteOffset":1439308,
			"target":34962
		},
		{
			"buffer":0,
			"byteLength":52884,
			"byteOffset":1481148,
			"target":34963
		},
		{
			"buffer":0,
			"byteLength":76824,
			"byteOffset":1534032,
			"target":34962
		},
		{
			"buffer":0,
			"byteLength":76824,
			"byteOffset":1610856,
			"target":34962
		},
		{
			"buffer":0,
			"byteLength":51216,
			"byteOffset":1687680,
			"target":34962
		},
		{
			"buffer":0,
			"byteLength":64512,
			"byteOffset":1738896,
			"target":34963
		},
		{
			"buffer":0,
			"byteLength":183396,
			"byteOffset":1803408,
			"target":34962
		},
		{
			"buffer":0,
			"byteLength":183396,
			"byteOffset":1986804,
			"target":34962
		},
		{
			"buffer":0,
			"byteLength":122264,
			"byteOffset":2170200,
			"target":34962
		},
		{
			"buffer":0,
			"byteLength":99504,
			"byteOffset":2292464,
			"target":34963
		},
		{
			"buffer":0,
			"byteLength":58546584,
			"byteOffset":2391968,
			"target":34962
		},
		{
			"buffer":0,
			"byteLength":58546584,
			"byteOffset":60938552,
			"target":34962
		},
		{
			"buffer":0,
			"byteLength":39031056,
			"byteOffset":119485136,
			"target":34962
		},
		{
			"buffer":0,
			"byteLength":30052968,
			"byteOffset":158516192,
			"target":34963
		},
		{
			"buffer":0,
			"byteLength":147456,
			"byteOffset":188569160,
			"target":34962
		},
		{
			"buffer":0,
			"byteLength":147456,
			"byteOffset":188716616,
			"target":34962
		},
		{
			"buffer":0,
			"byteLength":98304,
			"byteOffset":188864072,
			"target":34962
		},
		{
			"buffer":0,
			"byteLength":147456,
			"byteOffset":188962376,
			"target":34963
		}
	],
	"buffers":[
		{
			"byteLength":189109832,
			"uri":"pandero.bin"
		}
	]
}
